<svg xmlns="http://www.w3.org/2000/svg" viewBox="0 0 512 512"><path fill="currentColor" d="M80 48Q66 48 57 57Q48 66 48 80L48 176Q48 190 57 199Q66 208 80 208L176 208Q190 208 199 199Q208 190 208 176L208 80Q208 66 199 57Q190 48 176 48L80 48M32 80Q33 60 46 46Q60 33 80 32L176 32Q196 33 210 46Q223 60 224 80L224 176Q223 196 210 210Q196 223 176 224L80 224Q60 223 46 210Q33 196 32 176L32 80M80 304Q66 304 57 313Q48 322 48 336L48 432Q48 446 57 455Q66 464 80 464L176 464Q190 464 199 455Q208 446 208 432L208 336Q208 322 199 313Q190 304 176 304L80 304M32 336Q33 316 46 302Q60 289 80 288L176 288Q196 289 210 302Q223 316 224 336L224 432Q223 452 210 466Q196 479 176 480L80 480Q60 479 46 466Q33 452 32 432L32 336M432 48L336 48L432 48L336 48Q322 48 313 57Q304 66 304 80L304 176Q304 190 313 199Q322 208 336 208L432 208Q446 208 455 199Q464 190 464 176L464 80Q464 66 455 57Q446 48 432 48M336 32L432 32L336 32L432 32Q452 33 466 46Q479 60 480 80L480 176Q479 196 466 210Q452 223 432 224L336 224Q316 223 302 210Q289 196 288 176L288 80Q289 60 302 46Q316 33 336 32M336 304Q322 304 313 313Q304 322 304 336L304 432Q304 446 313 455Q322 464 336 464L432 464Q446 464 455 455Q464 446 464 432L464 336Q464 322 455 313Q446 304 432 304L336 304M288 336Q289 316 302 302Q316 289 336 288L432 288Q452 289 466 302Q479 316 480 336L480 432Q479 452 466 466Q452 479 432 480L336 480Q316 479 302 466Q289 452 288 432"/></svg>
