<svg xmlns="http://www.w3.org/2000/svg" viewBox="0 0 576 512"><path fill="currentColor" d="M212 162L281 21L212 162L281 21Q283 16 288 16Q293 16 295 21L364 162Q368 169 376 171L529 193Q534 194 535 199Q537 203 533 207L422 317Q417 323 418 331L444 487Q445 491 441 494Q437 497 433 495L296 422Q288 418 280 422L143 495Q139 497 135 494Q131 491 132 487L158 331Q159 323 154 317L42 207L31 218L42 207Q39 203 40 199Q42 194 47 193L200 171Q208 169 212 162M425 509Q438 516 450 507Q462 498 460 484L434 328L545 218Q555 208 551 194Q546 180 531 177L378 155L310 14Q303 1 288 0Q273 1 266 14L198 155L45 178Q30 180 25 194Q21 208 31 218L142 328L116 484Q114 498 126 507Q138 516 151 509L288 436"/></svg>
