<svg xmlns="http://www.w3.org/2000/svg" viewBox="0 0 640 512"><path fill="currentColor" d="M112 128Q112 98 127 72Q142 46 168 31Q194 16 224 16Q254 16 280 31Q306 46 321 72Q336 98 336 128Q336 158 321 184Q306 210 280 225Q254 240 224 240Q194 240 168 225Q142 210 127 184Q112 158 112 128M16 482Q18 413 64 368Q109 322 178 320L270 320Q339 322 384 368Q430 413 432 482Q431 495 418 496L30 496Q17 495 16 482M224 256Q259 256 288 239Q317 222 335 192Q352 162 352 128Q352 94 335 64Q317 34 288 17Q259 0 224 0Q189 0 160 17Q131 34 113 64Q96 94 96 128Q96 162 113 192Q131 222 160 239Q189 256 224 256M178 304Q103 306 52 356Q2 407 0 482Q0 495 9 503Q17 512 30 512L418 512Q431 512 439 503Q448 495 448 482Q446 407 396 356Q345 306 270 304L178 304M609 512Q622 512 631 503Q640 494 640 481Q638 413 593 367Q547 322 479 320L417 320Q411 320 404 321Q413 328 421 336L479 336Q540 338 581 379Q622 420 624 481Q623 495 609 496L479 496Q477 505 472 512L609 512M432 256Q480 255 511 223Q543 192 544 144Q543 96 511 65Q480 33 432 32Q394 33 366 54Q369 61 373 69Q398 49 432 48Q473 49 500 76Q527 103 528 144Q527 185 500 212Q473 239 432 240Q389 239 362 209Q358 216 353 223Q384 255 432 256"/></svg>
